<svg id="Capa_1" data-name="Capa 1" xmlns="http://www.w3.org/2000/svg" viewBox="0 0 239.15 38.45"><defs><style>.cls-1{fill:#127abf;}.cls-2{fill:#68c8f0;}</style></defs><title>title</title><polygon class="cls-1" points="37.07 6.94 13.65 30.36 5.65 38.36 4 38.36 1.17 31.53 24.59 8.11 32.58 0.11 34.25 0.11 37.07 6.94"/><polygon class="cls-2" points="38.25 30.36 38.25 38.36 5.65 38.36 13.65 30.36 38.25 30.36"/><polygon class="cls-2" points="32.58 0.11 24.59 8.11 0 8.11 0 0.11 32.58 0.11"/><polygon class="cls-2" points="54.21 8.1 54.21 15.22 76.9 15.22 76.9 23.22 54.21 23.22 54.21 30.35 84.46 30.35 84.46 38.35 46.22 38.35 46.22 0.1 84.46 0.1 84.46 8.1 54.21 8.1"/><polygon class="cls-2" points="130.68 4.1 130.68 38.34 122.68 38.34 122.68 8.09 115.56 8.09 115.56 30.78 107.56 30.78 107.56 8.09 100.43 8.09 100.43 38.34 92.43 38.34 92.43 3.95 96.28 0.1 126.69 0.1 130.68 4.1"/><rect class="cls-2" x="138.67" y="0.09" width="7.99" height="38.25"/><path class="cls-2" d="M192.9,8.09h0V.1H154.65V38.34h38.26v-8h0ZM162.65,30.35V8.27l.16-.17H184.9V30.34H162.65Z"/><polygon class="cls-2" points="239.15 15.44 239.15 15.44 239.15 15.44 231.15 15.44 231.15 15.44 208.9 15.44 208.9 8.09 208.89 8.09 239.14 8.09 239.14 0.1 200.9 0.1 200.89 0.09 200.89 15.44 200.89 23.43 200.89 23.43 231.15 23.43 231.15 30.34 231.15 30.35 200.89 30.35 200.89 38.34 239.14 38.34 239.14 38.34 239.15 38.34 239.15 23.43 239.15 23.43 239.15 15.44"/></svg>