<svg xmlns="http://www.w3.org/2000/svg" viewBox="0 0 1185.64 1185.64"><defs><style>.cls-1{fill:#f39343;stroke:#1d1d1b;stroke-miterlimit:10;stroke-width:5px;}.cls-2{fill:#1d1d1b;}</style></defs><title>Recurso 10</title><g id="Capa_2" data-name="Capa 2"><g id="Capa_1-2" data-name="Capa 1"><path class="cls-1" d="M592.82,2.5C266.85,2.5,2.5,266.75,2.5,592.82s264.35,590.32,590.32,590.32,590.32-264.35,590.32-590.32S918.89,2.5,592.82,2.5Zm0,992.47c-222,0-402.15-180-402.15-402.15S370.79,190.67,592.82,190.67,995,370.69,995,592.82,815,995,592.82,995Z"/><path class="cls-2" d="M233,319.21,221,308.42l8.7-9.61-46.69-42.29-8.7,9.61-11.91-10.79,33.4-36.89,11.92,10.79-8.88,9.8,46.69,42.29,18-19.84-21.8-19.75,11.86-13.08,33.71,30.53Z"/><path class="cls-2" d="M353,189.88l9.56,12.93L326.76,229.3l-9.55-12.93,9.32-6.89-13.17-10.59-18.91,14,5.84,16,9.74-7.2,9.56,12.92-32.27,23.86-9.55-12.93,9-6.66-23.26-61.14-9.69,7.16L244.28,172l47.56-35.17,9.55,12.93L291.6,157l52.74,39.34Zm-50.95,0L279,171.33l10.49,27.88Z"/><path class="cls-2" d="M396.82,185.37l-5.67-15,12.13-4.57-22.23-58.95-12.13,4.57-5.67-15,75.89-28.6,10.35,27.45-16.21,6.11L428.6,88.89l-25.48,9.6,7.77,20.61,18.35-6.92,5.67,15-18.35,6.92,8.78,23.3,13.05-4.92,5.67,15Z"/><path class="cls-2" d="M562.62,125l2.63,15.86-44,7.3-2.63-15.86,11.44-1.9L523.19,115,500,118.83l-2.08,16.92,11.95-2,2.63,15.86-39.58,6.57-2.63-15.86,11.05-1.83,7.1-65-11.89,2-2.63-15.86,58.35-9.68,2.63,15.85-12,2,29.08,59ZM495.55,46.77l6.21-23.08,24.16-4L506.09,45Zm21.69,55-12.15-27-3.34,29.6Z"/><path class="cls-2" d="M568.83,141.09l.63-16.06,11.13.44,2.47-62.95-11.13-.44L572.56,46l41.33,1.63q13.74.52,20.37,2.47t11.27,8.59A24.36,24.36,0,0,1,649.82,74q-.54,13.88-13.53,19.11,16,7,15.38,23.4a26.24,26.24,0,0,1-5.68,16,25,25,0,0,1-13.37,8.64q-8.07,2.11-22.46,1.55Zm35.32-14.7,6.64.26q9,.36,12.74-2.24t4-9.49q.28-7.24-3.47-10.3t-12.22-3.39l-6.64-.26Zm1.63-41.48,6.64.26q6.9.27,10.25-2.07t3.6-8.55c.14-3.78-.8-6.49-2.85-8.12s-5.69-2.55-10.94-2.75l-5.86-.23Z"/><path class="cls-2" d="M755.13,152.65l-4,15.57-26.75-6.79L714.84,116l-10.05-2.55-6.29,24.79,11,2.79-4,15.58L659.63,145l4-15.58,12.06,3.07L691.15,71.4l-12.06-3.06,4-15.58,53,13.45q15,3.81,19.55,13.4a28.21,28.21,0,0,1,2,19.61q-4,15.72-21,19.07l7.19,31.47Zm-46.6-53.9,7.83,2q14.52,3.69,17.28-7.18,1.36-5.37-1.27-8.87t-8.45-5L714,77.21Z"/><path class="cls-2" d="M752.91,171l6.56-14.67L772,161.89l25.71-57.51-12.55-5.61,6.56-14.67L838.48,105l-6.56,14.68L819.26,114l-25.71,57.51,12.66,5.67-6.56,14.67Z"/><path class="cls-2" d="M924.47,159.12,937,167.91l-19.23,27.45-12.54-8.79q5-18.52-8.15-27.75-10.89-7.63-21.92-3.75t-18.64,14.75q-8,11.38-7,22.54a22.86,22.86,0,0,0,10.09,17.55,22.49,22.49,0,0,0,16.8,3.83q9.33-1.4,17.94-9.48l9.49,17.55q-27.33,21.32-55.66,1.47-20-14-22.25-32.45t9.89-35.75q8.64-12.32,20.39-17.87a42.51,42.51,0,0,1,24-4,50.8,50.8,0,0,1,22.88,9.06q13.29,9.3,17.15,22.86Z"/><path class="cls-2" d="M962.28,304l-11.6,11.12L919.85,283l11.6-11.12,8,8.37,8.82-14.41-16.27-17-15.14,7.83,8.39,8.75-11.61,11.12-27.76-29,11.6-11.12,7.75,8.09L963,213.67l-8.34-8.7,11.61-11.12,40.93,42.7-11.61,11.12-8.43-8.79L954.8,296.2Zm-6.48-50.55,15.46-25.29-26.32,14Z"/><path class="cls-2" d="M305.51,1062.58l-8.18,11.56-23.1-16.36,4.23-6q-11.11,2.19-18.57-3.09-8.92-6.33-9.41-18.1t7.19-22.61q7.79-11,19.14-14.27t20.05,2.88q8.34,5.91,8.94,16.58l11.29-16L309.64,992l8.18-11.56,22.71,16.08L297.66,1057Zm-13.3-29.88q5.1-7.2,4.33-12.34a11.07,11.07,0,0,0-4.52-7.8,9.63,9.63,0,0,0-9.53-1.25q-5,1.92-9.25,7.88a21.61,21.61,0,0,0-4.31,11.22,9.54,9.54,0,0,0,4.27,8.83,10.86,10.86,0,0,0,8.91,1.6Q287.22,1039.74,292.21,1032.7Z"/><path class="cls-2" d="M364.1,1087.83l10.81,10.85q-14.88,9.39-32.26.74-13.86-6.9-17.81-18.44t2.28-24q6.35-12.73,18.61-17.27t24.65,1.64a28.63,28.63,0,0,1,13.16,12.51,27.87,27.87,0,0,1,3.18,16.41,52.41,52.41,0,0,1-5.35,17.13l-39-19.44q-3.36,7.68-.77,12.88a16,16,0,0,0,7.18,7.48Q354.76,1091.26,364.1,1087.83Zm5.3-18.65a15.91,15.91,0,0,0,.47-9.55,10.94,10.94,0,0,0-6.16-7.11q-9.19-4.59-16.24,5.74Z"/><path class="cls-2" d="M390.61,1119.43l6.69-20.06,13,4.33a8.52,8.52,0,0,0,1.43,7.75,15.06,15.06,0,0,0,7.68,5.27,12.93,12.93,0,0,0,7.33.67,5,5,0,0,0,3.79-3.25,4.13,4.13,0,0,0-1.05-4.3q-1.81-2-8-5.35-12.71-6.79-17.12-13.46a15.71,15.71,0,0,1-1.83-14.36,16.47,16.47,0,0,1,9.69-10.31q7.27-3.09,16.57,0a35.92,35.92,0,0,1,13.08,7.61l.68-2,12.68,4.23-5.66,16.93-12.68-4.24q.32-6.66-10.13-10.14-7.68-2.57-9.17,1.89a2.9,2.9,0,0,0,.72,3.08q1.29,1.41,7.37,4.77a106,106,0,0,1,14.13,8.87,17.89,17.89,0,0,1,6.11,8.91,18.32,18.32,0,0,1-.38,11.35,19.37,19.37,0,0,1-10.5,12.06q-7.65,3.51-18.32,0-9.92-3.32-12.17-8.79l-1,2.92Z"/><path class="cls-2" d="M531.78,1140.16l-2.58,13.93-27.83-5.16,1.33-7.19q-9.17,6.65-18.14,5-10.77-2-16.14-12.48t-3-23.54q2.44-13.25,11.39-21t19.4-5.8q10,1.86,15.07,11.3l3.56-19.22-9-1.66,2.58-13.93,27.36,5.07-13.51,72.93Zm-24.61-21.54q1.6-8.68-1.25-13a11.1,11.1,0,0,0-7.37-5.18,9.65,9.65,0,0,0-9.17,2.86q-3.76,3.85-5.09,11a21.51,21.51,0,0,0,.79,12,9.51,9.51,0,0,0,7.58,6.22,10.83,10.83,0,0,0,8.76-2.28Q505.59,1127.12,507.17,1118.62Z"/><path class="cls-2" d="M594.74,1138.09l14.37,5.29q-9.54,14.79-29,14.26-15.46-.42-23.91-9.23t-8.06-22.78q.39-14.22,9.6-23.49t23.05-8.9a28.66,28.66,0,0,1,17.21,5.81,27.82,27.82,0,0,1,9.79,13.54,52.53,52.53,0,0,1,2.36,17.79l-43.59-1.19q.18,8.38,4.72,12A16,16,0,0,0,581,1145Q587.71,1145.14,594.74,1138.09Zm-3-19.14a16,16,0,0,0-3.59-8.87,11,11,0,0,0-8.58-3.85q-10.29-.29-12.31,12Z"/><path class="cls-2" d="M718.14,1116.68l4,25.35-53,10q-2.13-11.35-1.55-17.93a41.61,41.61,0,0,1,3.49-13.19,88.7,88.7,0,0,1,8.78-15q7.74-10.87,9.94-15.72a16.74,16.74,0,0,0,1.19-10.21,9.83,9.83,0,0,0-3.5-6.16,7.33,7.33,0,0,0-6.13-1.53,7.9,7.9,0,0,0-6.48,5.64q-1.55,4.72-.08,14.46l-15.3,2.1q-2.35-12.54,0-19.58a21.78,21.78,0,0,1,7.95-11.06,31.54,31.54,0,0,1,12.78-5.37q11.82-2.22,19.86,3.37a23.87,23.87,0,0,1,10,15.83,25.34,25.34,0,0,1-.15,10.53,26.2,26.2,0,0,1-3.7,8.78,113.16,113.16,0,0,1-9.32,11.15q-10.22,11.16-12.26,17a26.69,26.69,0,0,0-1.83,9.91l24.13-4.54-2.12-11.29Z"/><path class="cls-2" d="M774.34,1127.62q-13.35,4.53-24.13-4.17t-17.91-29.63q-7-20.49-4-34.1T745,1041.47q13.63-4.65,24.31,4.23T787,1075.2q7.14,21,3.86,34.44T774.34,1127.62Zm-4.74-13.55q6.12-2.08,4.25-12.85a131.59,131.59,0,0,0-5-19.84q-4.95-14.55-9.65-21.31t-9.62-5.08q-5,1.69-4.49,10.08t5.34,22.64q4.95,14.55,9.63,21.27T769.6,1114.07Z"/><path class="cls-2" d="M859.22,1060.83l11,23.22-48.06,24.36q-5.24-10.31-6.51-16.77a41.65,41.65,0,0,1-.34-13.65,89.48,89.48,0,0,1,4.25-16.82q4.4-12.62,5.14-17.88a16.6,16.6,0,0,0-1.71-10.13,9.83,9.83,0,0,0-5.08-4.94,7.31,7.31,0,0,0-6.31.25,7.89,7.89,0,0,0-4.65,7.23q-.17,5,4,13.9l-14.1,6.3q-5.78-11.39-5.47-18.8a21.8,21.8,0,0,1,4.55-12.85,31.58,31.58,0,0,1,10.76-8.73q10.73-5.44,20-2.31a23.83,23.83,0,0,1,14,12.41,25.32,25.32,0,0,1,2.8,10.15,26,26,0,0,1-1.1,9.46,112.25,112.25,0,0,1-5.83,13.31q-6.69,13.57-7,19.73a26.44,26.44,0,0,0,1,10l21.9-11.1-5.19-10.26Z"/><path class="cls-2" d="M899.1,1066.27,891,1054.66l9.51-6.64-34.36-49.2L856,1005.88l-8.11-11.61,25.29-17.66,42.48,60.81,9-6.31,8.11,11.61Z"/><polygon points="343.91 819.65 837.63 819.65 837.63 703.79 786.48 703.79 786.48 731.97 670.62 731.97 670.62 686.04 423.24 686.04 423.24 596.28 343.91 596.28 343.91 819.65"/><polygon points="670.62 731.97 670.62 819.65 837.63 819.65 837.63 703.79 786.48 703.79 786.48 731.97 670.62 731.97"/><path d="M725.59,732s7-137.08,8.35-159.35h36.19S776.39,711.1,783.35,732Z"/><polygon points="736.84 572.62 728.49 572.62 728.49 549.22 777.2 549.22 777.2 572.62 773.03 572.62 736.84 572.62"/><path d="M604.46,687.65s7-137.08,8.35-159.35H649s6.27,138.48,13.23,159.35Z"/><polygon points="615.71 528.3 607.36 528.3 607.36 504.9 656.07 504.9 656.07 528.3 651.89 528.3 615.71 528.3"/><polygon points="480.28 479.64 471.93 479.64 471.93 456.24 520.64 456.24 520.64 479.64 516.46 479.64 480.28 479.64"/><path d="M469.84,687.65s7-178.94,8.35-208h36.18s6.27,180.76,13.23,208Z"/><rect x="423.24" y="686.04" width="247.38" height="133.61"/><polygon points="423.24 686.04 423.24 596.28 343.91 596.28 343.91 819.65 423.24 819.65 423.24 686.04"/><ellipse cx="812.05" cy="703.79" rx="25.57" ry="27.83"/><path d="M490,446c-.35-1-12.18-41.4,31-50.8s49.75,6.26,96.72-6.61,52.54-24.7,76.89-22.27,34.1,7.31,34.8,18.1-9,25.05-20.88,26.79-15-4.88-36.53,13.57-57.41-5.22-57.41-5.22-6.26-3.83-24.7-3.13S570.41,423,552,423s-31.66-1.74-40.71,0-16.35,18.44-16.35,21.92S490,446,490,446Z"/><path d="M782.3,703.91h59.5a.13.13,0,0,0,0-.25H782.3a.13.13,0,0,0,0,.25Z"/><path d="M723.1,596.4h59.5a.13.13,0,0,0,0-.25H723.1a.13.13,0,0,0,0,.25Z"/><path d="M602,549.35h59.49a.13.13,0,0,0,0-.25H602a.13.13,0,0,0,0,.25Z"/><path d="M466.53,505H526a.13.13,0,0,0,0-.25h-59.5a.13.13,0,0,0,0,.25Z"/></g></g></svg>