<svg xmlns="http://www.w3.org/2000/svg" width="600" height="400" viewBox="0 0 600 400"><rect width="100%" height="100%" fill="#DDDDDD"/><path fill="#999999" d="M254.925 249.1q0-3.1 1.15-5.9 1.15-2.8 3.15-4.8t4.8-3.2q2.8-1.2 6-1.2t5.95 1.2q2.75 1.2 4.8 3.2t3.25 4.8q1.2 2.8 1.2 5.9 0 3.2-1.2 5.95t-3.25 4.75q-2.05 2-4.8 3.15t-5.95 1.15q-3.2 0-6-1.15t-4.8-3.15q-2-2-3.15-4.75t-1.15-5.95Zm0-71.3q0-3.1 1.15-5.9 1.15-2.8 3.15-4.8t4.8-3.2q2.8-1.2 6-1.2t5.95 1.2q2.75 1.2 4.8 3.2t3.25 4.8q1.2 2.8 1.2 5.9 0 3.2-1.2 5.95t-3.25 4.75q-2.05 2-4.8 3.15t-5.95 1.15q-3.2 0-6-1.15t-4.8-3.15q-2-2-3.15-4.75t-1.15-5.95Zm69.6 22.2q0 20.6 5 40.5t14.3 37.4q1 2 1.15 3.55.15 1.55-.25 2.7-.4 1.15-1.25 2-.85.85-1.85 1.45l-11 6.7q-7.4-11.4-12.6-22.9-5.2-11.5-8.5-23.2t-4.85-23.7q-1.55-12-1.55-24.5t1.55-24.55q1.55-12.05 4.85-23.75t8.5-23.15q5.2-11.45 12.6-22.85l11 6.6q1 .6 1.85 1.45.85.85 1.25 2t.25 2.7q-.15 1.55-1.15 3.65-9.3 17.4-14.3 37.35-5 19.95-5 40.55Z"/></svg>