<svg xmlns="http://www.w3.org/2000/svg" viewBox="0 0 880.95 830.5"><defs><style>.cls-1{fill:#127abf;}.cls-2{fill:#fff;}</style></defs><title>Recurso 9</title><g id="Capa_2" data-name="Capa 2"><g id="Capa_1-2" data-name="Capa 1"><path class="cls-1" d="M296.57,35.4,4.29,752.14C-12.15,792.45,21,835.52,64.14,830L831.2,732.26c43.53-5.55,64.64-56.21,37.93-91l-474.78-619C367.62-12.58,313.16-5.26,296.57,35.4Z"/><path class="cls-2" d="M775.67,657c-1.62.1-3.22.4-4.83.61L101.3,742.91c-7.58,1-7.58,1-4.68-6Q227.45,424.86,358.26,112.79c3-7.17,3-7.19,7.65-1.08Q562.47,370,759,628.28c6.12,8.05,12.17,16.15,18.4,24.1C779.59,655.19,779.75,656.71,775.67,657Z"/><path class="cls-1" d="M488.14,552.1c.81-.09,1.6-.18,2.41-.29L472.9,540.3q-29.17-19-58.43-37.82c-2.26-1.46-2.59-2.74-1.74-5.2q5.63-16.53,10.89-33.17,8.91-28.29,17.58-56.66c1.73-5.65,2-11.27-2.3-16-14.36-15.76-27.32-32.67-40.66-49.27-4.11-5.11-8.6-6.23-14.39-5.11-2.45.47-4.89,1.05-7.34,1.46q-39.43,6.58-78.88,13.16c-7.07,1.19-10.8,5.59-11.11,12.67-.44,10.47-.8,20.94-1.28,31.4-.38,8.4-.89,16.79-1.34,25.18L282.47,422c-3.73-3.26-7.34-6.7-11.25-9.75-4.47-3.51-9.57-1.85-11.42,3.54-1.48,4.28-.25,7.76,3.37,10.54,9.39,7.2,18.66,14.54,28.1,21.68,2.25,1.7,2.51,2.91.66,5.11-3.32,3.94-6.31,8.17-9.57,12.17a7.38,7.38,0,0,0-1.79,6.37c4.95,30.26,9.73,60.55,14.65,90.81a27.05,27.05,0,0,1,0,9.37c-4.33,23.37-8.7,46.72-12.77,70.13-1.89,10.85,2.8,18.48,13,22.38,9.52,3.63,17.57.88,23.68-8.19a27.65,27.65,0,0,0,4.37-10.5c2-11.12,4.39-22.17,6.55-33.25,2.87-14.68,7.53-29.31,8-44.06s-3.26-29.74-5.14-44.62c-.62-4.87-1.25-9.73-2-15.66,1.63,1.4,2.38,2,3.06,2.63,12.68,12.29,25.28,24.67,38.09,36.81,2.67,2.54,3.22,4.55,1.87,8.09-9,23.78-17.8,47.66-26.58,71.55-4.23,11.46,1,22.9,12.33,27.28,12.11,4.68,24.09-.46,28.6-12.39,3.17-8.4,6.22-16.85,9.31-25.28,7.22-19.66,14.6-39.28,21.59-59,3.47-9.83,3.86-19.53-3.58-28.23a11,11,0,0,1-2.91-7.91l63.22,42.23,5.93,4,5.63-7.27a4.2,4.2,0,0,1-3.75-3.55C483.48,555.05,484.83,552.48,488.14,552.1ZM315.49,409.86c.77-8.21,1.61-16.75,2.35-25.28.14-1.73.61-2.71,2.53-2.92,6.23-.72,12.44-1.56,18.92-2.39Zm63.88,68.63L358.62,468.2,386.72,446c.33.16.64.32.95.49Z"/><path class="cls-1" d="M415.34,349.61a29.1,29.1,0,1,1,32.34,25.45A28.93,28.93,0,0,1,415.34,349.61Z"/><path class="cls-1" d="M596.69,604.44l-54.75,7c-3.2.4-4.26-.39-4.66-3.53q-4.35-34-8.68-68c-.37-2.92.6-4.16,3.55-4.54q54.75-7,109.49-13.95c2.93-.38,4.25.62,4.62,3.5q4.35,34,8.67,68c.39,3-.51,4.18-3.5,4.56Z"/><path class="cls-1" d="M485.69,532.64,537.88,526l2-.25-1.39-10.88c-.47-3.66-2.31-5.07-6-4.6l-41.29,5.26c-5.38.69-10.78,1.35-16.16,2.07-3.27.44-4.72,2.42-4.3,5.65q1.09,8.53,2.18,17.06l3,23.56q5.09,40,10.19,80c.54,4.24,2.24,5.51,6.51,5L546.18,642c1.24-.15,2.47-.29,3.71-.47a4.43,4.43,0,0,0,4.05-5.35c-.27-2.25-.56-4.5-.84-6.74l-1.37-10.71c-3.42.43-6.66,1-9.91,1.2a13.77,13.77,0,0,1-5.31-.6c-4.83-1.65-7.12-5.36-7.73-10.3-1.31-10.51-2.7-21-4-31.51-.17-1.39-.6-1.78-2-1.58-8.14,1.1-16.29,2.11-24.43,3.14-2.58.32-5.16.71-7.75.89a4.07,4.07,0,0,1-4.38-4.12c-.06-2.38,1.66-4.06,4.61-4.44l30.49-3.89,2-.26L522,556.44l-2,.25-30.66,3.9a6.12,6.12,0,0,1-1.87,0,4.2,4.2,0,0,1-3.75-3.55c-.23-2,1.12-4.52,4.43-4.9.81-.09,1.6-.18,2.41-.29,9.48-1.09,19-2.38,28.43-3.59l2-.26-1.41-11.06-4.12.52q-14.65,1.88-29.32,3.73a4.11,4.11,0,0,1-4.88-3.9C481.16,534.8,482.87,533,485.69,532.64Zm30.22,74.63a6.84,6.84,0,0,1,7.35,5.76,6.62,6.62,0,0,1-13.15,1.56A6.84,6.84,0,0,1,515.91,607.27Z"/><path class="cls-1" d="M611.37,611.25l1.72,13.49c3.42-.43,6.76-.89,10.11-1.27a7.9,7.9,0,0,1,2.83.11,4.26,4.26,0,0,1,3.13,4,4.71,4.71,0,0,1-3.63,4.34c-.27.06-.55.08-.84.12q-24.15,3.07-48.32,6.15c-3,.38-5.18-1.09-5.5-3.62a4.14,4.14,0,0,1,3-4.63,17.38,17.38,0,0,1,2.49-.48c3.08-.41,6.15-.79,9.38-1.21L584,614.74Z"/></g></g></svg>