<svg xmlns="http://www.w3.org/2000/svg" viewBox="0 0 239.15 38.27"><defs><style>.cls-1{fill:#127abf;}.cls-2{fill:#68c8f0;}</style></defs><title>Recurso 5</title><g id="Capa_2" data-name="Capa 2"><g id="Capa_1-2" data-name="Capa 1"><polygon class="cls-1" points="37.07 6.85 13.65 30.27 5.65 38.27 4 38.27 1.17 31.44 24.59 8.02 32.58 0.02 34.25 0.02 37.07 6.85"/><polygon class="cls-2" points="38.25 30.27 38.25 38.27 5.65 38.27 13.65 30.27 38.25 30.27"/><polygon class="cls-2" points="32.58 0.02 24.59 8.02 0 8.02 0 0.02 32.58 0.02"/><rect class="cls-2" x="54.21" y="15.13" width="22.69" height="8"/><polygon class="cls-2" points="46.22 38.25 46.22 38.26 84.46 38.26 84.46 30.26 54.21 30.26 54.21 8.01 84.46 8.01 84.46 0.01 46.22 0.01 46.22 38.25"/><polygon class="cls-2" points="130.68 4.01 130.68 38.25 122.68 38.25 122.68 8 115.56 8 115.56 30.69 107.56 30.69 107.56 8 100.43 8 100.43 38.25 92.43 38.25 92.43 3.86 96.28 0.01 126.69 0.01 130.68 4.01"/><rect class="cls-2" x="138.67" width="7.99" height="38.25"/><path class="cls-2" d="M192.9,8h0V0H154.65V38.25h38.26v-8h0ZM162.65,30.26V8.18l.16-.17H184.9V30.26Z"/><polygon class="cls-2" points="239.15 15.35 239.15 15.35 239.15 15.35 231.15 15.35 231.15 15.35 208.9 15.35 208.9 8 208.89 8 239.14 8 239.14 0.01 200.9 0.01 200.89 0 200.89 15.35 200.89 23.34 200.89 23.34 231.15 23.34 231.15 30.25 231.15 30.26 200.89 30.26 200.89 38.25 239.14 38.25 239.14 38.25 239.15 38.25 239.15 23.34 239.15 23.34 239.15 15.35"/></g></g></svg>